<svg width="35" height="34" viewBox="0 0 35 34" fill="none" xmlns="http://www.w3.org/2000/svg">
<path d="M4.5 7.96875C4.5 5.916 6.166 4.25 8.21875 4.25H19.9062C21.959 4.25 23.625 5.916 23.625 7.96875V21.25H30V24.4375C30 25.8465 29.4403 27.1977 28.444 28.194C27.4477 29.1903 26.0965 29.75 24.6875 29.75H9.8125C8.40354 29.75 7.05228 29.1903 6.056 28.194C5.05971 27.1977 4.5 25.8465 4.5 24.4375V7.96875ZM23.625 27.625H24.6875C25.5329 27.625 26.3436 27.2892 26.9414 26.6914C27.5392 26.0936 27.875 25.2829 27.875 24.4375V23.375H23.625V27.625ZM9.8125 11.6875C9.8125 11.9693 9.92444 12.2395 10.1237 12.4388C10.323 12.6381 10.5932 12.75 10.875 12.75H17.25C17.5318 12.75 17.802 12.6381 18.0013 12.4388C18.2006 12.2395 18.3125 11.9693 18.3125 11.6875C18.3125 11.4057 18.2006 11.1355 18.0013 10.9362C17.802 10.7369 17.5318 10.625 17.25 10.625H10.875C10.5932 10.625 10.323 10.7369 10.1237 10.9362C9.92444 11.1355 9.8125 11.4057 9.8125 11.6875ZM10.875 15.9375C10.5932 15.9375 10.323 16.0494 10.1237 16.2487C9.92444 16.448 9.8125 16.7182 9.8125 17C9.8125 17.2818 9.92444 17.552 10.1237 17.7513C10.323 17.9506 10.5932 18.0625 10.875 18.0625H17.25C17.5318 18.0625 17.802 17.9506 18.0013 17.7513C18.2006 17.552 18.3125 17.2818 18.3125 17C18.3125 16.7182 18.2006 16.448 18.0013 16.2487C17.802 16.0494 17.5318 15.9375 17.25 15.9375H10.875ZM9.8125 22.3125C9.8125 22.5943 9.92444 22.8645 10.1237 23.0638C10.323 23.2631 10.5932 23.375 10.875 23.375H14.0625C14.3443 23.375 14.6145 23.2631 14.8138 23.0638C15.0131 22.8645 15.125 22.5943 15.125 22.3125C15.125 22.0307 15.0131 21.7605 14.8138 21.5612C14.6145 21.3619 14.3443 21.25 14.0625 21.25H10.875C10.5932 21.25 10.323 21.3619 10.1237 21.5612C9.92444 21.7605 9.8125 22.0307 9.8125 22.3125Z" fill="#F24360"/>
</svg>
