<svg width="35" height="34" viewBox="0 0 35 34" fill="none" xmlns="http://www.w3.org/2000/svg">
<path d="M24.5835 4.73168C26.7371 5.97507 28.5255 7.76345 29.7689 9.91708C31.0123 12.0707 31.6668 14.5137 31.6668 17.0005C31.6668 19.4872 31.0122 21.9302 29.7688 24.0838C28.5254 26.2374 26.737 28.0258 24.5833 29.2692C22.4297 30.5125 19.9867 31.1671 17.4999 31.167C15.0132 31.167 12.5702 30.5124 10.4166 29.2689C8.263 28.0255 6.47466 26.2371 5.23131 24.0834C3.98797 21.9298 3.33343 19.4868 3.3335 17L3.34058 16.541C3.41992 14.0944 4.13186 11.7101 5.40699 9.62058C6.68212 7.53105 8.47692 5.80757 10.6164 4.61818C12.7559 3.42879 15.1671 2.81407 17.6149 2.83396C20.0627 2.85386 22.4636 3.50767 24.5835 4.73168ZM17.5002 8.50001C17.1244 8.50001 16.7641 8.64927 16.4984 8.91494C16.2328 9.18062 16.0835 9.54095 16.0835 9.91668C14.9563 9.91668 13.8753 10.3644 13.0783 11.1615C12.2813 11.9585 11.8335 13.0395 11.8335 14.1667C11.8335 15.2938 12.2813 16.3749 13.0783 17.1719C13.8753 17.9689 14.9563 18.4167 16.0835 18.4167V21.25C15.8485 21.263 15.614 21.2185 15.4002 21.1202C15.1864 21.0219 14.9998 20.8729 14.8567 20.6862L14.7603 20.5431C14.5665 20.2305 14.2587 20.0056 13.902 19.9158C13.5453 19.8261 13.1677 19.8785 12.8491 20.0622C12.5304 20.2458 12.2956 20.5462 12.1944 20.8998C12.0932 21.2534 12.1334 21.6325 12.3067 21.9569C12.6682 22.584 13.184 23.1084 13.8051 23.4803C14.4261 23.8522 15.1319 24.0593 15.8554 24.0819H16.0835C16.0832 24.4292 16.2104 24.7644 16.441 25.024C16.6716 25.2836 16.9896 25.4495 17.3344 25.4901L17.5002 25.5C17.8759 25.5 18.2362 25.3508 18.5019 25.0851C18.7676 24.8194 18.9168 24.4591 18.9168 24.0833L19.1662 24.0763C20.2706 24.0124 21.3066 23.5205 22.0541 22.7049C22.8016 21.8893 23.2016 20.8144 23.1691 19.7086C23.1366 18.6028 22.6743 17.5533 21.8802 16.7829C21.0862 16.0126 20.0231 15.5823 18.9168 15.5833V12.75C19.424 12.733 19.8674 12.9483 20.1437 13.3138L20.24 13.4569C20.4338 13.7695 20.7416 13.9945 21.0983 14.0842C21.455 14.174 21.8326 14.1215 22.1513 13.9378C22.47 13.7542 22.7047 13.4538 22.8059 13.1002C22.9072 12.7466 22.8669 12.3675 22.6937 12.0431C22.3323 11.4157 21.8166 10.8911 21.1955 10.5189C20.5744 10.1468 19.8686 9.93949 19.1449 9.91668H18.9168C18.9168 9.54095 18.7676 9.18062 18.5019 8.91494C18.2362 8.64927 17.8759 8.50001 17.5002 8.50001ZM18.9168 18.4167C19.2926 18.4167 19.6529 18.5659 19.9186 18.8316C20.1842 19.0973 20.3335 19.4576 20.3335 19.8333C20.3335 20.2091 20.1842 20.5694 19.9186 20.8351C19.6529 21.1008 19.2926 21.25 18.9168 21.25V18.4167ZM16.0835 12.75V15.5833C15.7078 15.5833 15.3474 15.4341 15.0818 15.1684C14.8161 14.9027 14.6668 14.5424 14.6668 14.1667C14.6668 13.791 14.8161 13.4306 15.0818 13.1649C15.3474 12.8993 15.7078 12.75 16.0835 12.75Z" fill="#F24360"/>
</svg>
