<svg width="16" height="18" viewBox="0 0 16 18" fill="none" xmlns="http://www.w3.org/2000/svg">
<mask id="mask0_257_10" style="mask-type:luminance" maskUnits="userSpaceOnUse" x="0" y="3" width="4" height="4">
<path d="M0 3.48389H3.80979V6.99753H0V3.48389Z" fill="white"/>
</mask>
<g mask="url(#mask0_257_10)">
<path d="M0 3.53662V6.95768L3.76943 5.84036L0 3.53662Z" fill="#F24360"/>
</g>
<mask id="mask1_257_10" style="mask-type:luminance" maskUnits="userSpaceOnUse" x="3" y="0" width="5" height="6">
<path d="M3.23584 0H7.68427V5.44913H3.23584V0Z" fill="white"/>
</mask>
<g mask="url(#mask1_257_10)">
<path d="M7.63899 0.012207H3.27539L4.36956 5.42272L7.63899 0.012207Z" fill="#F24360"/>
</g>
<path d="M2.94468 0.174805L0.144043 3.132L4.02185 5.50181L2.94468 0.174805Z" fill="#F24360"/>
<mask id="mask2_257_10" style="mask-type:luminance" maskUnits="userSpaceOnUse" x="8" y="0" width="5" height="6">
<path d="M8.30615 0H12.7546V5.44913H8.30615V0Z" fill="white"/>
</mask>
<g mask="url(#mask2_257_10)">
<path d="M12.7147 0.012207H8.35107L11.6207 5.42272L12.7147 0.012207Z" fill="#F24360"/>
</g>
<path d="M11.3459 5.71927L7.99483 0.173828L4.64355 5.71927H11.3459Z" fill="#F24360"/>
<path d="M15.8456 3.132L13.0449 0.174805L11.9678 5.50181L15.8456 3.132Z" fill="#F24360"/>
<mask id="mask3_257_10" style="mask-type:luminance" maskUnits="userSpaceOnUse" x="12" y="3" width="4" height="4">
<path d="M12.1807 3.48389H16.0002V6.99753H12.1807V3.48389Z" fill="white"/>
</mask>
<g mask="url(#mask3_257_10)">
<path d="M15.9897 6.95768V3.53662L12.2251 5.83733L15.9897 6.95768Z" fill="#F24360"/>
</g>
<mask id="mask4_257_10" style="mask-type:luminance" maskUnits="userSpaceOnUse" x="4" y="6" width="8" height="12">
<path d="M4.52734 6.10425H11.4631V18H4.52734V6.10425Z" fill="white"/>
</mask>
<g mask="url(#mask4_257_10)">
<path d="M4.5415 6.16138L7.99517 18.0034L11.4486 6.16138H4.5415Z" fill="#F24360"/>
</g>
<path d="M8.47607 17.6198L15.8365 7.36705L11.8152 6.17017L8.47607 17.6198Z" fill="#F24360"/>
<path d="M0.15332 7.36727L7.51337 17.6197L4.17574 6.1748L0.15332 7.36727ZM1.5485 7.9842C1.53094 8.00374 1.51113 8.0184 1.48871 8.02817C1.46647 8.03771 1.44368 8.04166 1.42014 8.04003C1.39659 8.03841 1.37417 8.03096 1.35306 8.0184C1.33176 8.0056 1.31345 7.98816 1.29775 7.96629L1.21162 7.84556C1.19536 7.82369 1.1834 7.79903 1.17518 7.77111C1.16715 7.7432 1.16378 7.71458 1.1649 7.68504C1.16621 7.65526 1.17182 7.62712 1.18209 7.60036C1.19237 7.57384 1.20638 7.55058 1.22413 7.53081C1.24189 7.51103 1.26206 7.49638 1.28467 7.48684C1.30709 7.4773 1.33026 7.47335 1.35399 7.47521C1.37772 7.4773 1.40014 7.48475 1.42144 7.49801C1.44274 7.51127 1.46124 7.52895 1.47675 7.55128L1.56307 7.67178C1.57877 7.69388 1.59054 7.71854 1.5982 7.74622C1.60605 7.77414 1.60922 7.80252 1.60773 7.83183C1.60642 7.86114 1.60063 7.88906 1.59035 7.91534C1.58008 7.94186 1.56625 7.96489 1.5485 7.9842ZM3.60997 10.8651C3.59241 10.8846 3.57242 10.8993 3.55018 10.9088C3.52795 10.9186 3.50515 10.9226 3.48161 10.9209C3.45807 10.9191 3.43564 10.9119 3.41453 10.8991C3.39323 10.8863 3.37473 10.8691 3.35922 10.8472L1.75553 8.60602C1.73983 8.58416 1.72825 8.55927 1.7204 8.53158C1.71274 8.5039 1.70956 8.47552 1.71087 8.44621C1.71218 8.4169 1.71797 8.38898 1.72825 8.36269C1.73852 8.33617 1.75254 8.31337 1.7701 8.29383C1.78766 8.27429 1.80766 8.25964 1.82989 8.2501C1.85212 8.24033 1.87492 8.23637 1.89846 8.238C1.922 8.23986 1.94443 8.24708 1.96554 8.25987C1.98684 8.27243 2.00515 8.28988 2.02085 8.31175L3.62455 10.5529C3.64005 10.5748 3.65183 10.5997 3.65967 10.6273C3.66733 10.655 3.67051 10.6834 3.6692 10.7127C3.66789 10.742 3.6621 10.77 3.65183 10.7962C3.64155 10.8228 3.62754 10.8456 3.60997 10.8651Z" fill="#F24360"/>
</svg>
