<svg width="43" height="34" viewBox="0 0 43 34" fill="none" xmlns="http://www.w3.org/2000/svg">
<path d="M13 17C17.1105 17 20.4375 13.673 20.4375 9.5625C20.4375 5.45195 17.1105 2.125 13 2.125C8.88945 2.125 5.5625 5.45195 5.5625 9.5625C5.5625 13.673 8.88945 17 13 17ZM18.1 19.125H17.5488C16.1676 19.7891 14.6336 20.1875 13 20.1875C11.3664 20.1875 9.83906 19.7891 8.45117 19.125H7.9C3.67656 19.125 0.25 22.5516 0.25 26.775V28.6875C0.25 30.4473 1.67773 31.875 3.4375 31.875H22.5625C24.3223 31.875 25.75 30.4473 25.75 28.6875V26.775C25.75 22.5516 22.3234 19.125 18.1 19.125ZM32.125 17C35.6445 17 38.5 14.1445 38.5 10.625C38.5 7.10547 35.6445 4.25 32.125 4.25C28.6055 4.25 25.75 7.10547 25.75 10.625C25.75 14.1445 28.6055 17 32.125 17ZM35.3125 19.125H35.0602C34.1371 19.4438 33.1609 19.6562 32.125 19.6562C31.0891 19.6562 30.1129 19.4438 29.1898 19.125H28.9375C27.5828 19.125 26.3344 19.5168 25.2387 20.1477C26.859 21.8941 27.875 24.2117 27.875 26.775V29.325C27.875 29.4711 27.8418 29.6105 27.8352 29.75H39.5625C41.3223 29.75 42.75 28.3223 42.75 26.5625C42.75 22.452 39.423 19.125 35.3125 19.125Z" fill="#F24360"/>
</svg>
