<svg xmlns="http://www.w3.org/2000/svg" xmlns:xlink="http://www.w3.org/1999/xlink" version="1.1" width="256" height="256" viewBox="0 0 256 256" xml:space="preserve">

<defs>
</defs>
<g style="stroke: none; stroke-width: 0; stroke-dasharray: none; stroke-linecap: butt; stroke-linejoin: miter; stroke-miterlimit: 10; fill: none; fill-rule: nonzero; opacity: 1;" transform="translate(1.4065934065934016 1.4065934065934016) scale(2.81 2.81)" >
	<path d="M 80.964 9.036 C 70.232 -1.696 52.832 -1.696 42.1 9.036 c -8.58 8.58 -10.293 21.419 -5.154 31.708 L 1.937 75.753 L 1 89 l 13.246 -0.937 l 4.02 -4.02 l 1.418 -9.591 l 9.574 -1.418 l 1.418 -9.574 l 9.591 -1.418 l 8.987 -8.987 c 10.289 5.139 23.128 3.426 31.708 -5.154 C 91.696 37.168 91.696 19.768 80.964 9.036 z M 74.552 25.455 c -2.763 2.763 -7.243 2.763 -10.006 0 s -2.763 -7.243 0 -10.006 s 7.243 -2.763 10.006 0 S 77.315 22.691 74.552 25.455 z" style="stroke: none; stroke-width: 1; stroke-dasharray: none; stroke-linecap: butt; stroke-linejoin: miter; stroke-miterlimit: 10; fill: rgb(249,225,48); fill-rule: nonzero; opacity: 1;" transform=" matrix(1 0 0 1 0 0) " stroke-linecap="round" />
	<path d="M 1 90 c -0.264 0 -0.519 -0.105 -0.707 -0.293 c -0.205 -0.205 -0.311 -0.488 -0.291 -0.777 l 0.937 -13.246 c 0.017 -0.24 0.12 -0.467 0.291 -0.637 L 35.736 40.54 c -5.08 -10.845 -2.85 -23.704 5.657 -32.211 c 11.105 -11.106 29.173 -11.104 40.278 0 c 11.105 11.105 11.105 29.174 0 40.278 c -8.506 8.506 -21.362 10.738 -32.212 5.657 l -8.484 8.484 c -0.152 0.152 -0.348 0.251 -0.561 0.282 l -8.857 1.311 l -1.309 8.839 c -0.064 0.436 -0.407 0.778 -0.843 0.843 l -8.84 1.31 l -1.31 8.857 c -0.031 0.212 -0.13 0.409 -0.282 0.561 l -4.02 4.02 c -0.17 0.17 -0.397 0.273 -0.637 0.29 L 1.071 89.997 C 1.047 89.999 1.024 90 1 90 z M 2.908 76.197 L 2.079 87.921 l 11.725 -0.828 l 3.522 -3.523 l 1.37 -9.264 c 0.064 -0.436 0.407 -0.778 0.843 -0.843 l 8.84 -1.31 l 1.309 -8.839 c 0.064 -0.436 0.407 -0.778 0.843 -0.843 l 9.265 -1.37 l 8.753 -8.753 c 0.305 -0.306 0.769 -0.38 1.154 -0.188 c 10.207 5.096 22.486 3.102 30.554 -4.967 c 10.325 -10.325 10.325 -27.125 0 -37.45 c -10.325 -10.324 -27.123 -10.326 -37.45 0 c -8.069 8.069 -10.064 20.347 -4.967 30.554 c 0.192 0.385 0.117 0.85 -0.188 1.154 L 2.908 76.197 z" style="stroke: none; stroke-width: 1; stroke-dasharray: none; stroke-linecap: butt; stroke-linejoin: miter; stroke-miterlimit: 10; fill: rgb(0,0,0); fill-rule: nonzero; opacity: 1;" transform=" matrix(1 0 0 1 0 0) " stroke-linecap="round" />
	<path d="M 69.548 28.523 c -2.068 0 -4.135 -0.787 -5.71 -2.362 c -3.149 -3.148 -3.149 -8.272 0 -11.42 c 3.151 -3.149 8.274 -3.147 11.421 0 c 3.149 3.148 3.149 8.272 0 11.42 C 73.685 27.736 71.617 28.523 69.548 28.523 z M 69.548 14.379 c -1.555 0 -3.111 0.592 -4.296 1.777 c -2.369 2.369 -2.369 6.223 0 8.592 c 2.369 2.369 6.223 2.367 8.592 0 c 2.369 -2.369 2.369 -6.223 0 -8.592 C 72.66 14.971 71.104 14.379 69.548 14.379 z" style="stroke: none; stroke-width: 1; stroke-dasharray: none; stroke-linecap: butt; stroke-linejoin: miter; stroke-miterlimit: 10; fill: rgb(0,0,0); fill-rule: nonzero; opacity: 1;" transform=" matrix(1 0 0 1 0 0) " stroke-linecap="round" />
	<path d="M 15.051 72.32 c -0.256 0 -0.512 -0.098 -0.707 -0.293 c -0.391 -0.391 -0.391 -1.023 0 -1.414 l 26.36 -26.36 c 0.391 -0.391 1.023 -0.391 1.414 0 s 0.391 1.023 0 1.414 l -26.36 26.36 C 15.563 72.223 15.307 72.32 15.051 72.32 z" style="stroke: none; stroke-width: 1; stroke-dasharray: none; stroke-linecap: butt; stroke-linejoin: miter; stroke-miterlimit: 10; fill: rgb(0,0,0); fill-rule: nonzero; opacity: 1;" transform=" matrix(1 0 0 1 0 0) " stroke-linecap="round" />
	<path d="M 8.721 78.65 c -0.256 0 -0.512 -0.098 -0.707 -0.293 c -0.391 -0.391 -0.391 -1.023 0 -1.414 l 2.139 -2.139 c 0.391 -0.391 1.023 -0.391 1.414 0 s 0.391 1.023 0 1.414 l -2.139 2.139 C 9.233 78.553 8.977 78.65 8.721 78.65 z" style="stroke: none; stroke-width: 1; stroke-dasharray: none; stroke-linecap: butt; stroke-linejoin: miter; stroke-miterlimit: 10; fill: rgb(0,0,0); fill-rule: nonzero; opacity: 1;" transform=" matrix(1 0 0 1 0 0) " stroke-linecap="round" />
</g>
</svg>