<svg width="136" height="132" viewBox="0 0 136 132" fill="none" xmlns="http://www.w3.org/2000/svg">
<mask id="mask0_3_597" style="mask-type:luminance" maskUnits="userSpaceOnUse" x="0" y="25" width="33" height="27">
<path d="M0 25.5483H32.3832V51.3151H0V25.5483Z" fill="white"/>
</mask>
<g mask="url(#mask0_3_597)">
<path d="M0 25.9357V51.0234L32.0402 42.8297L0 25.9357Z" fill="white"/>
</g>
<mask id="mask1_3_597" style="mask-type:luminance" maskUnits="userSpaceOnUse" x="27" y="0" width="39" height="40">
<path d="M27.5044 0H65.3161V39.9603H27.5044V0Z" fill="white"/>
</mask>
<g mask="url(#mask1_3_597)">
<path d="M64.93 0.088623H27.8394L37.1398 39.7657L64.93 0.088623Z" fill="white"/>
</g>
<path d="M25.03 1.28113L1.22461 22.9672L34.1859 40.3458L25.03 1.28113Z" fill="white"/>
<mask id="mask2_3_597" style="mask-type:luminance" maskUnits="userSpaceOnUse" x="70" y="0" width="39" height="40">
<path d="M70.6016 0H108.413V39.9603H70.6016V0Z" fill="white"/>
</mask>
<g mask="url(#mask2_3_597)">
<path d="M108.073 0.088623H70.9824L98.7742 39.7657L108.073 0.088623Z" fill="white"/>
</g>
<path d="M96.4412 41.9409L67.957 1.27429L39.4712 41.9409H96.4412Z" fill="white"/>
<path d="M134.688 22.9672L110.883 1.28113L101.727 40.3458L134.688 22.9672Z" fill="white"/>
<mask id="mask3_3_597" style="mask-type:luminance" maskUnits="userSpaceOnUse" x="103" y="25" width="33" height="27">
<path d="M103.534 25.5483H136V51.3151H103.534V25.5483Z" fill="white"/>
</mask>
<g mask="url(#mask3_3_597)">
<path d="M135.914 51.0234V25.9357L103.916 42.8076L135.914 51.0234Z" fill="white"/>
</g>
<mask id="mask4_3_597" style="mask-type:luminance" maskUnits="userSpaceOnUse" x="38" y="44" width="60" height="88">
<path d="M38.4819 44.7643H97.4356V132H38.4819V44.7643Z" fill="white"/>
</mask>
<g mask="url(#mask4_3_597)">
<path d="M38.6011 45.1838L67.9572 132.025L97.3117 45.1838H38.6011Z" fill="white"/>
</g>
<path d="M72.0483 129.211L134.612 54.0242L100.431 45.2471L72.0483 129.211Z" fill="white"/>
<path d="M1.3042 54.026L63.8646 129.211L35.4948 45.2812L1.3042 54.026ZM13.1632 58.5502C13.0139 58.6935 12.8456 58.8009 12.655 58.8726C12.466 58.9425 12.2722 58.9715 12.0721 58.9596C11.872 58.9477 11.6814 58.8931 11.502 58.8009C11.3209 58.7071 11.1653 58.5792 11.0319 58.4188L10.2997 57.5334C10.1615 57.3731 10.0599 57.1922 9.99002 56.9875C9.92173 56.7828 9.89314 56.573 9.90267 56.3563C9.91378 56.1379 9.96143 55.9315 10.0488 55.7353C10.1361 55.5409 10.2552 55.3703 10.4061 55.2253C10.557 55.0803 10.7285 54.9728 10.9207 54.9028C11.1113 54.8329 11.3082 54.8039 11.5099 54.8175C11.7116 54.8329 11.9022 54.8875 12.0833 54.9847C12.2643 55.082 12.4215 55.2116 12.5534 55.3754L13.2871 56.2591C13.4205 56.4211 13.5206 56.602 13.5857 56.805C13.6524 57.0097 13.6794 57.2178 13.6667 57.4328C13.6556 57.6477 13.6063 57.8524 13.519 58.0452C13.4316 58.2397 13.3141 58.4086 13.1632 58.5502ZM30.6857 79.6767C30.5365 79.82 30.3665 79.9275 30.1775 79.9974C29.9885 80.0691 29.7948 80.0981 29.5947 80.0862C29.3945 80.0725 29.204 80.0196 29.0245 79.9258C28.8434 79.832 28.6862 79.7057 28.5544 79.5454L14.9229 63.1102C14.7895 62.9498 14.6911 62.7673 14.6244 62.5643C14.5592 62.3613 14.5322 62.1531 14.5434 61.9382C14.5545 61.7232 14.6037 61.5185 14.6911 61.3258C14.7784 61.1313 14.8975 60.9641 15.0468 60.8208C15.1961 60.6775 15.366 60.57 15.555 60.5001C15.744 60.4284 15.9378 60.3994 16.1379 60.4114C16.338 60.425 16.5286 60.4779 16.7081 60.5717C16.8891 60.6639 17.0448 60.7918 17.1782 60.9522L30.8096 77.3873C30.9414 77.5477 31.0415 77.7302 31.1082 77.9332C31.1733 78.1362 31.2003 78.3444 31.1892 78.5593C31.1781 78.7743 31.1288 78.979 31.0415 79.1718C30.9541 79.3662 30.835 79.5334 30.6857 79.6767Z" fill="white"/>
</svg>
