<svg width="16" height="18" viewBox="0 0 16 18" fill="none" xmlns="http://www.w3.org/2000/svg">
<path d="M14.41 2.77702C13.3127 0.986538 11.8109 0 10.1818 0H5.81818C4.18909 0 2.68727 0.986538 1.59 2.77702C0.564546 4.44981 0 6.66346 0 9C0 11.3365 0.564546 13.5502 1.59 15.223C2.68727 17.0135 4.18909 18 5.81818 18H10.1818C11.8109 18 13.3127 17.0135 14.41 15.223C15.4355 13.5502 16 11.3365 16 9C16 6.66346 15.4355 4.44981 14.41 2.77702ZM14.5264 8.30769H11.6173C11.5605 6.88704 11.2633 5.48442 10.7373 4.15385H13.5182C14.0745 5.31173 14.4418 6.75 14.5264 8.30769ZM12.6536 2.76923H10.0418C9.73804 2.26758 9.37176 1.80268 8.95091 1.38462H10.1818C11.0909 1.38462 11.9455 1.90385 12.6536 2.76923ZM10.1818 16.6154H8.95364C9.37449 16.1973 9.74077 15.7324 10.0445 15.2308H12.6564C11.9455 16.0962 11.0909 16.6154 10.1818 16.6154ZM13.5182 13.8462H10.7382C11.2642 12.5156 11.5614 11.113 11.6182 9.69231H14.5273C14.4418 11.25 14.0745 12.6883 13.5182 13.8462Z" fill="#F24360"/>
</svg>
