<svg width="26" height="26" viewBox="0 0 26 26" fill="none" xmlns="http://www.w3.org/2000/svg">
<path d="M0.5 3.96875C0.5 1.916 2.166 0.25 4.21875 0.25H15.9062C17.959 0.25 19.625 1.916 19.625 3.96875V17.25H26V20.4375C26 21.8465 25.4403 23.1977 24.444 24.194C23.4477 25.1903 22.0965 25.75 20.6875 25.75H5.8125C4.40354 25.75 3.05228 25.1903 2.056 24.194C1.05971 23.1977 0.5 21.8465 0.5 20.4375V3.96875ZM19.625 23.625H20.6875C21.5329 23.625 22.3436 23.2892 22.9414 22.6914C23.5392 22.0936 23.875 21.2829 23.875 20.4375V19.375H19.625V23.625ZM5.8125 7.6875C5.8125 7.96929 5.92444 8.23954 6.1237 8.4388C6.32296 8.63806 6.59321 8.75 6.875 8.75H13.25C13.5318 8.75 13.802 8.63806 14.0013 8.4388C14.2006 8.23954 14.3125 7.96929 14.3125 7.6875C14.3125 7.40571 14.2006 7.13546 14.0013 6.9362C13.802 6.73694 13.5318 6.625 13.25 6.625H6.875C6.59321 6.625 6.32296 6.73694 6.1237 6.9362C5.92444 7.13546 5.8125 7.40571 5.8125 7.6875ZM6.875 11.9375C6.59321 11.9375 6.32296 12.0494 6.1237 12.2487C5.92444 12.448 5.8125 12.7182 5.8125 13C5.8125 13.2818 5.92444 13.552 6.1237 13.7513C6.32296 13.9506 6.59321 14.0625 6.875 14.0625H13.25C13.5318 14.0625 13.802 13.9506 14.0013 13.7513C14.2006 13.552 14.3125 13.2818 14.3125 13C14.3125 12.7182 14.2006 12.448 14.0013 12.2487C13.802 12.0494 13.5318 11.9375 13.25 11.9375H6.875ZM5.8125 18.3125C5.8125 18.5943 5.92444 18.8645 6.1237 19.0638C6.32296 19.2631 6.59321 19.375 6.875 19.375H10.0625C10.3443 19.375 10.6145 19.2631 10.8138 19.0638C11.0131 18.8645 11.125 18.5943 11.125 18.3125C11.125 18.0307 11.0131 17.7605 10.8138 17.5612C10.6145 17.3619 10.3443 17.25 10.0625 17.25H6.875C6.59321 17.25 6.32296 17.3619 6.1237 17.5612C5.92444 17.7605 5.8125 18.0307 5.8125 18.3125Z" fill="#F24360"/>
</svg>
