<svg width="35" height="34" viewBox="0 0 35 34" fill="none" xmlns="http://www.w3.org/2000/svg">
<path d="M11.8332 29.7501H6.1665C5.79078 29.7501 5.43045 29.6008 5.16477 29.3351C4.89909 29.0695 4.74984 28.7091 4.74984 28.3334V22.6667C4.74984 22.291 4.60058 21.9307 4.33491 21.665C4.06923 21.3993 3.70889 21.2501 3.33317 21.2501C2.95745 21.2501 2.59711 21.3993 2.33144 21.665C2.06576 21.9307 1.9165 22.291 1.9165 22.6667V28.3334C1.9165 29.4606 2.36427 30.5416 3.1613 31.3386C3.95833 32.1356 5.03933 32.5834 6.1665 32.5834H11.8332C12.2089 32.5834 12.5692 32.4342 12.8349 32.1685C13.1006 31.9028 13.2498 31.5425 13.2498 31.1667C13.2498 30.791 13.1006 30.4307 12.8349 30.165C12.5692 29.8993 12.2089 29.7501 11.8332 29.7501ZM31.6665 21.2501C31.2908 21.2501 30.9304 21.3993 30.6648 21.665C30.3991 21.9307 30.2498 22.291 30.2498 22.6667V28.3334C30.2498 28.7091 30.1006 29.0695 29.8349 29.3351C29.5692 29.6008 29.2089 29.7501 28.8332 29.7501H23.1665C22.7908 29.7501 22.4304 29.8993 22.1648 30.165C21.8991 30.4307 21.7498 30.791 21.7498 31.1667C21.7498 31.5425 21.8991 31.9028 22.1648 32.1685C22.4304 32.4342 22.7908 32.5834 23.1665 32.5834H28.8332C29.9603 32.5834 31.0413 32.1356 31.8384 31.3386C32.6354 30.5416 33.0832 29.4606 33.0832 28.3334V22.6667C33.0832 22.291 32.9339 21.9307 32.6682 21.665C32.4026 21.3993 32.0422 21.2501 31.6665 21.2501ZM28.8332 1.41675H23.1665C22.7908 1.41675 22.4304 1.566 22.1648 1.83168C21.8991 2.09736 21.7498 2.45769 21.7498 2.83341C21.7498 3.20914 21.8991 3.56947 22.1648 3.83515C22.4304 4.10083 22.7908 4.25008 23.1665 4.25008H28.8332C29.2089 4.25008 29.5692 4.39934 29.8349 4.66501C30.1006 4.93069 30.2498 5.29102 30.2498 5.66675V11.3334C30.2498 11.7091 30.3991 12.0695 30.6648 12.3351C30.9304 12.6008 31.2908 12.7501 31.6665 12.7501C32.0422 12.7501 32.4026 12.6008 32.6682 12.3351C32.9339 12.0695 33.0832 11.7091 33.0832 11.3334V5.66675C33.0832 4.53958 32.6354 3.45857 31.8384 2.66154C31.0413 1.86451 29.9603 1.41675 28.8332 1.41675ZM3.33317 12.7501C3.70889 12.7501 4.06923 12.6008 4.33491 12.3351C4.60058 12.0695 4.74984 11.7091 4.74984 11.3334V5.66675C4.74984 5.29102 4.89909 4.93069 5.16477 4.66501C5.43045 4.39934 5.79078 4.25008 6.1665 4.25008H11.8332C12.2089 4.25008 12.5692 4.10083 12.8349 3.83515C13.1006 3.56947 13.2498 3.20914 13.2498 2.83341C13.2498 2.45769 13.1006 2.09736 12.8349 1.83168C12.5692 1.566 12.2089 1.41675 11.8332 1.41675H6.1665C5.03933 1.41675 3.95833 1.86451 3.1613 2.66154C2.36427 3.45857 1.9165 4.53958 1.9165 5.66675V11.3334C1.9165 11.7091 2.06576 12.0695 2.33144 12.3351C2.59711 12.6008 2.95745 12.7501 3.33317 12.7501ZM14.6665 7.08341H8.99984C8.62411 7.08341 8.26378 7.23267 7.9981 7.49835C7.73243 7.76402 7.58317 8.12436 7.58317 8.50008V14.1667C7.58317 14.5425 7.73243 14.9028 7.9981 15.1685C8.26378 15.4342 8.62411 15.5834 8.99984 15.5834H14.6665C15.0422 15.5834 15.4026 15.4342 15.6682 15.1685C15.9339 14.9028 16.0832 14.5425 16.0832 14.1667V8.50008C16.0832 8.12436 15.9339 7.76402 15.6682 7.49835C15.4026 7.23267 15.0422 7.08341 14.6665 7.08341ZM13.2498 12.7501H10.4165V9.91675H13.2498V12.7501ZM20.3332 15.5834H25.9998C26.3756 15.5834 26.7359 15.4342 27.0016 15.1685C27.2672 14.9028 27.4165 14.5425 27.4165 14.1667V8.50008C27.4165 8.12436 27.2672 7.76402 27.0016 7.49835C26.7359 7.23267 26.3756 7.08341 25.9998 7.08341H20.3332C19.9574 7.08341 19.5971 7.23267 19.3314 7.49835C19.0658 7.76402 18.9165 8.12436 18.9165 8.50008V14.1667C18.9165 14.5425 19.0658 14.9028 19.3314 15.1685C19.5971 15.4342 19.9574 15.5834 20.3332 15.5834ZM21.7498 9.91675H24.5832V12.7501H21.7498V9.91675ZM14.6665 18.4167H8.99984C8.62411 18.4167 8.26378 18.566 7.9981 18.8317C7.73243 19.0974 7.58317 19.4577 7.58317 19.8334V25.5001C7.58317 25.8758 7.73243 26.2361 7.9981 26.5018C8.26378 26.7675 8.62411 26.9167 8.99984 26.9167H14.6665C15.0422 26.9167 15.4026 26.7675 15.6682 26.5018C15.9339 26.2361 16.0832 25.8758 16.0832 25.5001V19.8334C16.0832 19.4577 15.9339 19.0974 15.6682 18.8317C15.4026 18.566 15.0422 18.4167 14.6665 18.4167ZM13.2498 24.0834H10.4165V21.2501H13.2498V24.0834ZM20.3332 22.6667C20.7089 22.6667 21.0692 22.5175 21.3349 22.2518C21.6006 21.9861 21.7498 21.6258 21.7498 21.2501C22.1256 21.2501 22.4859 21.1008 22.7516 20.8351C23.0172 20.5695 23.1665 20.2091 23.1665 19.8334C23.1665 19.4577 23.0172 19.0974 22.7516 18.8317C22.4859 18.566 22.1256 18.4167 21.7498 18.4167H20.3332C19.9574 18.4167 19.5971 18.566 19.3314 18.8317C19.0658 19.0974 18.9165 19.4577 18.9165 19.8334V21.2501C18.9165 21.6258 19.0658 21.9861 19.3314 22.2518C19.5971 22.5175 19.9574 22.6667 20.3332 22.6667ZM25.9998 18.4167C25.6241 18.4167 25.2638 18.566 24.9981 18.8317C24.7324 19.0974 24.5832 19.4577 24.5832 19.8334V24.0834C24.2074 24.0834 23.8471 24.2327 23.5814 24.4983C23.3158 24.764 23.1665 25.1244 23.1665 25.5001C23.1665 25.8758 23.3158 26.2361 23.5814 26.5018C23.8471 26.7675 24.2074 26.9167 24.5832 26.9167H25.9998C26.3756 26.9167 26.7359 26.7675 27.0016 26.5018C27.2672 26.2361 27.4165 25.8758 27.4165 25.5001V19.8334C27.4165 19.4577 27.2672 19.0974 27.0016 18.8317C26.7359 18.566 26.3756 18.4167 25.9998 18.4167ZM20.3332 24.0834C20.053 24.0834 19.7791 24.1665 19.5461 24.3222C19.3131 24.4778 19.1316 24.6991 19.0243 24.9579C18.9171 25.2168 18.8891 25.5017 18.9437 25.7765C18.9984 26.0513 19.1333 26.3037 19.3314 26.5018C19.5296 26.6999 19.782 26.8349 20.0568 26.8895C20.3316 26.9442 20.6164 26.9161 20.8753 26.8089C21.1342 26.7017 21.3554 26.5201 21.5111 26.2871C21.6667 26.0542 21.7498 25.7803 21.7498 25.5001C21.7498 25.1244 21.6006 24.764 21.3349 24.4983C21.0692 24.2327 20.7089 24.0834 20.3332 24.0834Z" fill="#F24360"/>
</svg>
