<svg width="35" height="34" viewBox="0 0 35 34" fill="none" xmlns="http://www.w3.org/2000/svg">
<path d="M9 5.66659V11.3333H26V5.66659H28.8432C29.6196 5.66659 30.25 6.297 30.25 7.07334V29.7598C30.2496 30.1328 30.1013 30.4904 29.8376 30.7541C29.5738 31.0179 29.2162 31.1662 28.8432 31.1666H6.15675C5.78366 31.1666 5.42584 31.0184 5.16203 30.7546C4.89821 30.4907 4.75 30.1329 4.75 29.7598V7.07334C4.75 6.297 5.38042 5.66659 6.15675 5.66659H9ZM13.25 24.0833H10.4167V26.9166H13.25V24.0833ZM13.25 19.8333H10.4167V22.6666H13.25V19.8333ZM13.25 15.5833H10.4167V18.4166H13.25V15.5833ZM23.1667 2.83325V8.49992H11.8333V2.83325H23.1667Z" fill="#F24360"/>
</svg>
